<svg width="534" height="170" viewBox="0 0 534 170" fill="none" xmlns="http://www.w3.org/2000/svg">
<rect x="5" y="5" width="523.182" height="160" fill="white" stroke="#D24939" stroke-width="10"/>
<path d="M198.486 95.4004V77.3066H201.204C202.415 77.3066 203.38 77.4004 204.099 77.5879C204.825 77.7754 205.439 78.0918 205.939 78.5371C206.447 78.998 206.849 79.5723 207.146 80.2598C207.45 80.9551 207.603 81.6582 207.603 82.3691C207.603 83.666 207.107 84.7637 206.115 85.6621C207.075 85.9902 207.833 86.5645 208.388 87.3848C208.95 88.1973 209.232 89.1426 209.232 90.2207C209.232 91.6348 208.732 92.8301 207.732 93.8066C207.13 94.4082 206.454 94.8262 205.704 95.0605C204.884 95.2871 203.857 95.4004 202.622 95.4004H198.486ZM201.216 85.0762H202.072C203.087 85.0762 203.829 84.8535 204.298 84.4082C204.775 83.9551 205.013 83.291 205.013 82.416C205.013 81.5645 204.771 80.9199 204.286 80.4824C203.802 80.0371 203.099 79.8145 202.177 79.8145H201.216V85.0762ZM201.216 92.834H202.904C204.138 92.834 205.044 92.5918 205.622 92.1074C206.232 91.584 206.536 90.9199 206.536 90.1152C206.536 89.334 206.243 88.6777 205.657 88.1465C205.087 87.623 204.068 87.3613 202.599 87.3613H201.216V92.834ZM211.646 86.2715C211.646 83.7246 212.579 81.5371 214.447 79.709C216.306 77.8809 218.54 76.9668 221.15 76.9668C223.728 76.9668 225.939 77.8887 227.782 79.7324C229.634 81.5762 230.56 83.791 230.56 86.377C230.56 88.9785 229.63 91.1855 227.771 92.998C225.904 94.8184 223.65 95.7285 221.009 95.7285C218.673 95.7285 216.575 94.9199 214.716 93.3027C212.669 91.5137 211.646 89.1699 211.646 86.2715ZM214.4 86.3066C214.4 88.3066 215.072 89.9512 216.415 91.2402C217.751 92.5293 219.294 93.1738 221.044 93.1738C222.943 93.1738 224.544 92.5176 225.849 91.2051C227.154 89.877 227.806 88.2598 227.806 86.3535C227.806 84.4238 227.161 82.8066 225.872 81.502C224.591 80.1895 223.005 79.5332 221.115 79.5332C219.232 79.5332 217.642 80.1895 216.345 81.502C215.048 82.7988 214.4 84.4004 214.4 86.3066ZM233.993 95.4004V77.3066H236.712C237.923 77.3066 238.888 77.4004 239.607 77.5879C240.333 77.7754 240.947 78.0918 241.447 78.5371C241.954 78.998 242.357 79.5723 242.654 80.2598C242.958 80.9551 243.111 81.6582 243.111 82.3691C243.111 83.666 242.615 84.7637 241.622 85.6621C242.583 85.9902 243.341 86.5645 243.896 87.3848C244.458 88.1973 244.74 89.1426 244.74 90.2207C244.74 91.6348 244.24 92.8301 243.24 93.8066C242.638 94.4082 241.962 94.8262 241.212 95.0605C240.392 95.2871 239.365 95.4004 238.13 95.4004H233.993ZM236.724 85.0762H237.579C238.595 85.0762 239.337 84.8535 239.806 84.4082C240.282 83.9551 240.521 83.291 240.521 82.416C240.521 81.5645 240.279 80.9199 239.794 80.4824C239.31 80.0371 238.607 79.8145 237.685 79.8145H236.724V85.0762ZM236.724 92.834H238.411C239.646 92.834 240.552 92.5918 241.13 92.1074C241.74 91.584 242.044 90.9199 242.044 90.1152C242.044 89.334 241.751 88.6777 241.165 88.1465C240.595 87.623 239.575 87.3613 238.107 87.3613H236.724V92.834ZM255.603 95.4004V77.3066H259.4C261.22 77.3066 262.657 77.4863 263.712 77.8457C264.845 78.1973 265.872 78.7949 266.794 79.6387C268.661 81.3418 269.595 83.5801 269.595 86.3535C269.595 89.1348 268.622 91.3848 266.677 93.1035C265.7 93.9629 264.677 94.5605 263.607 94.8965C262.607 95.2324 261.189 95.4004 259.353 95.4004H255.603ZM258.333 92.834H259.564C260.79 92.834 261.81 92.7051 262.622 92.4473C263.435 92.1738 264.169 91.7402 264.825 91.1465C266.169 89.9199 266.841 88.3223 266.841 86.3535C266.841 84.3691 266.177 82.7598 264.849 81.5254C263.654 80.4238 261.892 79.873 259.564 79.873H258.333V92.834ZM275.782 87.584L269.876 77.3066H273.017L277.154 84.5371L281.302 77.3066H284.443L278.513 87.584V95.4004H275.782V87.584ZM289.271 77.3066V92.834H294.591V95.4004H286.54V77.3066H289.271ZM308.818 91.0059H301.072L299.056 95.4004H296.115L305.068 76.1699L313.704 95.4004H310.716L308.818 91.0059ZM307.704 88.4395L305.021 82.2871L302.208 88.4395H307.704ZM315.978 95.4004V76.0762L329.173 89.8809V77.3066H331.904V96.502L318.708 82.7324V95.4004H315.978Z" fill="#282828"/>
<path d="M123.108 40.8852H124.14C125.324 40.8852 126.172 40.7332 126.684 40.4292C127.196 40.1252 127.452 39.6372 127.452 38.9652C127.452 38.2932 127.196 37.8052 126.684 37.5012C126.172 37.1972 125.324 37.0452 124.14 37.0452H123.108V40.8852ZM123.108 33.5412H123.972C125.444 33.5412 126.18 32.9572 126.18 31.7892C126.18 30.6212 125.444 30.0372 123.972 30.0372H123.108V33.5412ZM118.404 26.4372H125.412C127.076 26.4372 128.34 26.8372 129.204 27.6372C130.068 28.4372 130.5 29.5892 130.5 31.0932C130.5 32.0052 130.332 32.7652 129.996 33.3732C129.676 33.9652 129.18 34.4692 128.508 34.8852C129.18 35.0132 129.748 35.2132 130.212 35.4852C130.692 35.7412 131.076 36.0612 131.364 36.4452C131.668 36.8292 131.884 37.2612 132.012 37.7412C132.14 38.2212 132.204 38.7332 132.204 39.2772C132.204 40.1252 132.052 40.8772 131.748 41.5332C131.46 42.1892 131.044 42.7412 130.5 43.1892C129.972 43.6372 129.324 43.9732 128.556 44.1972C127.788 44.4212 126.924 44.5332 125.964 44.5332H118.404V26.4372ZM139.725 26.4372V40.5492H145.365V44.5332H135.021V26.4372H139.725ZM151.547 35.4852C151.547 36.2052 151.683 36.8692 151.955 37.4772C152.227 38.0852 152.595 38.6132 153.059 39.0612C153.523 39.5092 154.059 39.8612 154.667 40.1172C155.291 40.3572 155.947 40.4772 156.635 40.4772C157.323 40.4772 157.971 40.3572 158.579 40.1172C159.203 39.8612 159.747 39.5092 160.211 39.0612C160.691 38.6132 161.067 38.0852 161.339 37.4772C161.611 36.8692 161.747 36.2052 161.747 35.4852C161.747 34.7652 161.611 34.1012 161.339 33.4932C161.067 32.8852 160.691 32.3572 160.211 31.9092C159.747 31.4612 159.203 31.1172 158.579 30.8772C157.971 30.6212 157.323 30.4932 156.635 30.4932C155.947 30.4932 155.291 30.6212 154.667 30.8772C154.059 31.1172 153.523 31.4612 153.059 31.9092C152.595 32.3572 152.227 32.8852 151.955 33.4932C151.683 34.1012 151.547 34.7652 151.547 35.4852ZM146.627 35.4852C146.627 34.1412 146.875 32.8932 147.371 31.7412C147.867 30.5732 148.555 29.5572 149.435 28.6932C150.315 27.8292 151.363 27.1572 152.579 26.6772C153.811 26.1812 155.163 25.9332 156.635 25.9332C158.091 25.9332 159.435 26.1812 160.667 26.6772C161.899 27.1572 162.955 27.8292 163.835 28.6932C164.731 29.5572 165.427 30.5732 165.923 31.7412C166.419 32.8932 166.667 34.1412 166.667 35.4852C166.667 36.8292 166.419 38.0852 165.923 39.2532C165.427 40.4052 164.731 41.4132 163.835 42.2772C162.955 43.1412 161.899 43.8212 160.667 44.3172C159.435 44.7972 158.091 45.0372 156.635 45.0372C155.163 45.0372 153.811 44.7972 152.579 44.3172C151.363 43.8212 150.315 43.1412 149.435 42.2772C148.555 41.4132 147.867 40.4052 147.371 39.2532C146.875 38.0852 146.627 36.8292 146.627 35.4852ZM172.381 26.4372L175.501 38.1252L179.341 26.4372H183.085L186.925 38.1252L190.045 26.4372H194.965L189.565 44.5332H184.765L181.213 34.0452L177.661 44.5332H172.861L167.461 26.4372H172.381ZM201.577 26.4372V44.5332H196.873V26.4372H201.577ZM205.357 44.5332V26.4372H210.061L218.749 37.5012V26.4372H223.429V44.5332H218.749L210.061 33.4692V44.5332H205.357ZM229.336 26.4372H233.44L229.024 34.4052H226.24L229.336 26.4372ZM249.46 26.4372V44.5332H244.756V26.4372H249.46ZM253.24 44.5332V26.4372H257.944L266.632 37.5012V26.4372H271.312V44.5332H266.632L257.944 33.4692V44.5332H253.24ZM290.127 30.4212V44.5332H285.423V30.4212H281.559V26.4372H293.991V30.4212H290.127ZM300.788 33.4212H307.58V26.4372H312.284V44.5332H307.58V37.0692H300.788V44.5332H296.084V26.4372H300.788V33.4212ZM326.372 30.4212H320.78V33.4452H326.06V37.4292H320.78V40.5492H326.372V44.5332H316.076V26.4372H326.372V30.4212ZM340.944 26.4372L344.064 38.1252L347.904 26.4372H351.648L355.488 38.1252L358.608 26.4372H363.528L358.128 44.5332H353.328L349.776 34.0452L346.224 44.5332H341.424L336.024 26.4372H340.944ZM370.139 26.4372V44.5332H365.435V26.4372H370.139ZM373.92 44.5332V26.4372H378.624L387.312 37.5012V26.4372H391.992V44.5332H387.312L378.624 33.4692V44.5332H373.92ZM400.491 40.5492H401.571C402.387 40.5492 403.115 40.4212 403.755 40.1652C404.395 39.9092 404.931 39.5572 405.363 39.1092C405.811 38.6612 406.147 38.1332 406.371 37.5252C406.611 36.9012 406.731 36.2212 406.731 35.4852C406.731 34.7652 406.611 34.0932 406.371 33.4692C406.131 32.8452 405.787 32.3092 405.339 31.8612C404.907 31.4132 404.371 31.0612 403.731 30.8052C403.091 30.5492 402.371 30.4212 401.571 30.4212H400.491V40.5492ZM395.787 26.4372H402.747C403.979 26.4372 405.131 26.6852 406.203 27.1812C407.291 27.6772 408.235 28.3412 409.035 29.1732C409.851 29.9892 410.491 30.9492 410.955 32.0532C411.419 33.1412 411.651 34.2852 411.651 35.4852C411.651 36.6692 411.419 37.8132 410.955 38.9172C410.507 40.0052 409.875 40.9652 409.059 41.7972C408.259 42.6292 407.315 43.2932 406.227 43.7892C405.155 44.2852 403.995 44.5332 402.747 44.5332H395.787V26.4372Z" fill="#282828"/>
<path d="M84.0344 142.885H85.0664C86.2504 142.885 87.0984 142.733 87.6104 142.429C88.1224 142.125 88.3784 141.637 88.3784 140.965C88.3784 140.293 88.1224 139.805 87.6104 139.501C87.0984 139.197 86.2504 139.045 85.0664 139.045H84.0344V142.885ZM84.0344 135.541H84.8984C86.3704 135.541 87.1064 134.957 87.1064 133.789C87.1064 132.621 86.3704 132.037 84.8984 132.037H84.0344V135.541ZM79.3304 128.437H86.3384C88.0024 128.437 89.2664 128.837 90.1304 129.637C90.9944 130.437 91.4264 131.589 91.4264 133.093C91.4264 134.005 91.2584 134.765 90.9224 135.373C90.6024 135.965 90.1064 136.469 89.4344 136.885C90.1064 137.013 90.6744 137.213 91.1384 137.485C91.6184 137.741 92.0024 138.061 92.2904 138.445C92.5944 138.829 92.8104 139.261 92.9384 139.741C93.0664 140.221 93.1304 140.733 93.1304 141.277C93.1304 142.125 92.9784 142.877 92.6744 143.533C92.3864 144.189 91.9704 144.741 91.4264 145.189C90.8984 145.637 90.2504 145.973 89.4824 146.197C88.7144 146.421 87.8504 146.533 86.8904 146.533H79.3304V128.437ZM100.652 128.437V142.549H106.292V146.533H95.9476V128.437H100.652ZM112.473 137.485C112.473 138.205 112.609 138.869 112.881 139.477C113.153 140.085 113.521 140.613 113.985 141.061C114.449 141.509 114.985 141.861 115.593 142.117C116.217 142.357 116.873 142.477 117.561 142.477C118.249 142.477 118.897 142.357 119.505 142.117C120.129 141.861 120.673 141.509 121.137 141.061C121.617 140.613 121.993 140.085 122.265 139.477C122.537 138.869 122.673 138.205 122.673 137.485C122.673 136.765 122.537 136.101 122.265 135.493C121.993 134.885 121.617 134.357 121.137 133.909C120.673 133.461 120.129 133.117 119.505 132.877C118.897 132.621 118.249 132.493 117.561 132.493C116.873 132.493 116.217 132.621 115.593 132.877C114.985 133.117 114.449 133.461 113.985 133.909C113.521 134.357 113.153 134.885 112.881 135.493C112.609 136.101 112.473 136.765 112.473 137.485ZM107.553 137.485C107.553 136.141 107.801 134.893 108.297 133.741C108.793 132.573 109.481 131.557 110.361 130.693C111.241 129.829 112.289 129.157 113.505 128.677C114.737 128.181 116.089 127.933 117.561 127.933C119.017 127.933 120.361 128.181 121.593 128.677C122.825 129.157 123.881 129.829 124.761 130.693C125.657 131.557 126.353 132.573 126.849 133.741C127.345 134.893 127.593 136.141 127.593 137.485C127.593 138.829 127.345 140.085 126.849 141.253C126.353 142.405 125.657 143.413 124.761 144.277C123.881 145.141 122.825 145.821 121.593 146.317C120.361 146.797 119.017 147.037 117.561 147.037C116.089 147.037 114.737 146.797 113.505 146.317C112.289 145.821 111.241 145.141 110.361 144.277C109.481 143.413 108.793 142.405 108.297 141.253C107.801 140.085 107.553 138.829 107.553 137.485ZM133.308 128.437L136.428 140.125L140.268 128.437H144.012L147.852 140.125L150.972 128.437H155.892L150.492 146.533H145.692L142.14 136.045L138.588 146.533H133.788L128.388 128.437H133.308ZM162.503 128.437V146.533H157.799V128.437H162.503ZM166.284 146.533V128.437H170.988L179.676 139.501V128.437H184.356V146.533H179.676L170.988 135.469V146.533H166.284ZM190.263 128.437H194.367L189.951 136.405H187.167L190.263 128.437ZM210.386 128.437V146.533H205.682V128.437H210.386ZM214.166 146.533V128.437H218.87L227.558 139.501V128.437H232.238V146.533H227.558L218.87 135.469V146.533H214.166ZM251.054 132.421V146.533H246.35V132.421H242.486V128.437H254.918V132.421H251.054ZM261.714 135.421H268.506V128.437H273.21V146.533H268.506V139.069H261.714V146.533H257.01V128.437H261.714V135.421ZM287.298 132.421H281.706V135.445H286.986V139.429H281.706V142.549H287.298V146.533H277.002V128.437H287.298V132.421ZM301.87 128.437L304.99 140.125L308.83 128.437H312.574L316.414 140.125L319.534 128.437H324.454L319.054 146.533H314.254L310.702 136.045L307.15 146.533H302.35L296.95 128.437H301.87ZM331.066 128.437V146.533H326.362V128.437H331.066ZM334.846 146.533V128.437H339.55L348.238 139.501V128.437H352.918V146.533H348.238L339.55 135.469V146.533H334.846ZM361.417 142.549H362.497C363.313 142.549 364.041 142.421 364.681 142.165C365.321 141.909 365.857 141.557 366.289 141.109C366.737 140.661 367.073 140.133 367.297 139.525C367.537 138.901 367.657 138.221 367.657 137.485C367.657 136.765 367.537 136.093 367.297 135.469C367.057 134.845 366.713 134.309 366.265 133.861C365.833 133.413 365.297 133.061 364.657 132.805C364.017 132.549 363.297 132.421 362.497 132.421H361.417V142.549ZM356.713 128.437H363.673C364.905 128.437 366.057 128.685 367.129 129.181C368.217 129.677 369.161 130.341 369.961 131.173C370.777 131.989 371.417 132.949 371.881 134.053C372.345 135.141 372.577 136.285 372.577 137.485C372.577 138.669 372.345 139.813 371.881 140.917C371.433 142.005 370.801 142.965 369.985 143.797C369.185 144.629 368.241 145.293 367.153 145.789C366.081 146.285 364.921 146.533 363.673 146.533H356.713V128.437ZM389.737 127.381C387.897 130.517 386.977 134.261 386.977 138.613C386.977 139.669 387.041 140.741 387.169 141.829C387.313 142.901 387.505 143.933 387.745 144.925C387.985 145.917 388.273 146.837 388.609 147.685C388.945 148.549 389.321 149.301 389.737 149.941L387.121 151.429C386.001 149.797 385.137 147.877 384.529 145.669C383.937 143.461 383.641 141.053 383.641 138.445C383.641 137.293 383.713 136.141 383.857 134.989C384.017 133.837 384.241 132.717 384.529 131.629C384.817 130.541 385.177 129.517 385.609 128.557C386.041 127.581 386.545 126.693 387.121 125.893L389.737 127.381ZM397.605 128.437V142.549H403.245V146.533H392.901V128.437H397.605ZM410.378 128.437V146.533H405.674V128.437H410.378ZM417.375 128.437L421.743 139.453L426.135 128.437H431.247L423.615 146.533H419.871L412.263 128.437H417.375ZM443.439 132.421H437.847V135.445H443.127V139.429H437.847V142.549H443.439V146.533H433.143V128.437H443.439V132.421ZM446.206 149.941C448.046 146.773 448.966 143.029 448.966 138.709C448.966 137.685 448.894 136.637 448.75 135.565C448.622 134.477 448.43 133.429 448.174 132.421C447.934 131.413 447.646 130.477 447.31 129.613C446.974 128.749 446.606 128.005 446.206 127.381L448.822 125.893C449.942 127.525 450.798 129.445 451.39 131.653C451.998 133.845 452.302 136.261 452.302 138.901C452.302 140.053 452.222 141.205 452.062 142.357C451.918 143.509 451.694 144.621 451.39 145.693C451.102 146.765 450.742 147.789 450.31 148.765C449.878 149.741 449.382 150.629 448.822 151.429L446.206 149.941Z" fill="#282828"/>
<rect x="420.863" y="72.2969" width="112.317" height="25.8199" fill="#D24939"/>
<path d="M402.144 85.4819L429.53 112.868L429.53 58.0957L402.144 85.4819Z" fill="#D24939"/>
<rect x="112.317" y="98.7607" width="112.317" height="25.8199" transform="rotate(180 112.317 98.7607)" fill="#D24939"/>
<path d="M131.037 85.5757L103.65 58.1895L103.65 112.962L131.037 85.5757Z" fill="#D24939"/>
<rect x="105.162" y="61.0059" width="321.753" height="49.0909" stroke="#D24939" stroke-width="5"/>
</svg>
